# xmcd CD database file
#
# Track frame offsets:
#	150
#	5219
#	23016
#	35757
#	61623
#	83865
#	110646
#	132077
#	164559
#	180096
#	197216
#	223183
#	248557
#	273524
#
# Disc length: 4230 seconds
#
# Revision: 0
# Processed by: cddbd v1.5.1PL2 Copyright (c) Steve Scherf et al.
# Submitted via: CDex 1.51
#
DISCID=c010840e
DTITLE=San2 And His Soul Patrol - Live At Back2Harlem
DYEAR=2005
DGENRE=Blues
TTITLE0=Chicken Shack
TTITLE1=Aw Baby
TTITLE2=Messin With The Kid
TTITLE3=To Love The Language
TTITLE4=Checking On My Baby
TTITLE5=In The Wee Hours
TTITLE6=Man Of Many Words
TTITLE7=Broke And Hungry
TTITLE8=Mystery Train
TTITLE9=Pride N Joy
TTITLE10=Black As My Blues Can Be
TTITLE11=Georgia
TTITLE12=I Just Want To Make Love To You
TTITLE13=Rock Me Baby
EXTD=YEAR: 2005
EXTT0=
EXTT1=
EXTT2=
EXTT3=
EXTT4=
EXTT5=
EXTT6=
EXTT7=
EXTT8=
EXTT9=
EXTT10=
EXTT11=
EXTT12=
EXTT13=
PLAYORDER=
